{"title":"Nicki Minaj - Your Love [KingPinVideos]","uid":5710315,"size":89128178,"categoryP":"other","categoryS":"other","magnet":"?xt=urn:btih:8f272fd51f64db54e8415527fbbcbebc1e594007&amp;dn=Nicki+Minaj+-+Your+Love+%5BKingPinVideos%5D&amp;tr=udp%3A%2F%2Ftracker.openbittorrent.com%3A80&amp;tr=udp%3A%2F%2Fopen.demonii.com%3A1337&amp;tr=udp%3A%2F%2Ftracker.coppersurfer.tk%3A6969&amp;tr=udp%3A%2F%2Fexodus.desync.com%3A6969","seeders":1,"leechers":0,"uploader":"mrspatula","files":4,"time":1279869875,"description":"[IMG]http://a.imageshack.us/img818/2930/nickiminajyourlovekingp.jpg[/IMG]\n\n[IMG]http://a.imageshack.us/img257/2930/nickiminajyourlovekingp.jpg[/IMG]\n\n[CODE]General\nComplete name                    : Nicki Minaj - Your Love [KingPinVideos].mpg\nFormat                           : MPEG-PS\nFile size                        : 84.8 MiB\nDuration                         : 4mn 9s\nOverall bit rate                 : 2 856 Kbps\nWriting library                  : encoded by TMPGEnc 4.0 XPress Version. 4.7.4.299\n\nVideo\nID                               : 224 (0xE0)\nFormat                           : MPEG Video\nFormat version                   : Version 1\nFormat settings, BVOP            : Yes\nFormat settings, Matrix          : Default\nDuration                         : 4mn 9s\nBit rate mode                    : Constant\nBit rate                         : 2 614 Kbps\nNominal bit rate                 : 2 700 Kbps\nWidth                            : 384 pixels\nHeight                           : 208 pixels\nDisplay aspect ratio             : 16:9\nFrame rate                       : 29.970 fps\nResolution                       : 8 bits\nScan type                        : Progressive\nBits/(Pixel*Frame)               : 1.092\nStream size                      : 77.7 MiB (92%)\nWriting library                  : TMPGEnc XPress 4.7.4.299\n\nAudio\nID                               : 192 (0xC0)\nFormat                           : MPEG Audio\nFormat version                   : Version 1\nFormat profile                   : Layer 2\nDuration                         : 4mn 9s\nBit rate mode                    : Constant\nBit rate                         : 128 Kbps\nChannel(s)                       : 2 channels\nSampling rate                    : 48.0 KHz\nStream size                      : 3.80 MiB (4%)[/CODE]","torrent":{"xt":"urn:btih:8f272fd51f64db54e8415527fbbcbebc1e594007","amp;dn":"Nicki+Minaj+-+Your+Love+%5BKingPinVideos%5D","amp;tr":["udp%3A%2F%2Ftracker.openbittorrent.com%3A80","udp%3A%2F%2Fopen.demonii.com%3A1337","udp%3A%2F%2Ftracker.coppersurfer.tk%3A6969","udp%3A%2F%2Fexodus.desync.com%3A6969"],"infoHash":"8f272fd51f64db54e8415527fbbcbebc1e594007","infoHashBuffer":{"type":"Buffer","data":[143,39,47,213,31,100,219,84,232,65,85,39,251,188,190,188,30,89,64,7]},"announce":[],"urlList":[]}}